<svg width="87" height="100" viewBox="0 0 87 100" fill="none" xmlns="http://www.w3.org/2000/svg">
<path d="M1.46228 27.9718C2.26984 27.9718 2.92455 27.3171 2.92455 26.5095V2.92455H54.0184V15.9433C54.0184 17.5924 55.36 18.9339 57.0091 18.9339H70.1228V26.2159C70.1228 27.0234 70.7775 27.6782 71.585 27.6782C72.3926 27.6782 73.0473 27.0234 73.0473 26.2159V18.0176C73.0473 17.3056 72.7701 16.6362 72.2667 16.1328L56.9149 0.780856C56.4115 0.277248 55.7422 0 55.0299 0H2.66544C1.19575 0 0 1.19575 0 2.66544V26.5095C0 27.3171 0.65471 27.9718 1.46228 27.9718ZM56.943 15.9433V4.94503L68.0073 16.0094H57.0091C56.9728 16.0094 56.943 15.9798 56.943 15.9433Z" fill="#C60C30"/>
<path d="M71.5852 67.4735C70.7777 67.4735 70.123 68.1282 70.123 68.9358V97.0754H2.92455V32.7466C2.92455 31.939 2.26984 31.2843 1.46228 31.2843C0.65471 31.2843 0 31.939 0 32.7466V97.3345C0 98.8042 1.19575 100 2.66544 100H70.3819C71.8516 100 73.0473 98.8042 73.0473 97.3345V68.9358C73.0475 68.1282 72.3928 67.4735 71.5852 67.4735Z" fill="#C60C30"/>
<path d="M20.5333 17.6945C20.5333 16.1238 19.2555 14.846 17.6846 14.846H9.85498C8.2843 14.846 7.00647 16.1238 7.00647 17.6945V25.5241C7.00647 27.095 8.2843 28.3728 9.85498 28.3728H17.6846C19.2555 28.3728 20.5333 27.095 20.5333 25.5241V17.6945ZM17.6088 25.4483H9.93102V17.7706H17.6088V25.4483Z" fill="#C60C30"/>
<path d="M24.1613 19.7936H47.5483C48.3559 19.7936 49.0106 19.1389 49.0106 18.3313C49.0106 17.5237 48.3559 16.869 47.5483 16.869H24.1613C23.3537 16.869 22.699 17.5237 22.699 18.3313C22.699 19.1389 23.3537 19.7936 24.1613 19.7936Z" fill="#C60C30"/>
<path d="M24.1613 26.3498H47.5483C48.3559 26.3498 49.0106 25.6951 49.0106 24.8876C49.0106 24.08 48.3559 23.4253 47.5483 23.4253H24.1613C23.3537 23.4253 22.699 24.08 22.699 24.8876C22.699 25.6951 23.3537 26.3498 24.1613 26.3498Z" fill="#C60C30"/>
<path d="M20.5333 35.3181C20.5333 33.7472 19.2555 32.4694 17.6846 32.4694H9.85498C8.2843 32.4694 7.00647 33.7472 7.00647 35.3181V43.1477C7.00647 44.7186 8.2843 45.9964 9.85498 45.9964H17.6846C19.2555 45.9964 20.5333 44.7186 20.5333 43.1477V35.3181ZM17.6088 43.0716H9.93102V35.3939H17.6088V43.0716Z" fill="#C60C30"/>
<path d="M55.4807 34.4922H24.1613C23.3537 34.4922 22.699 35.1469 22.699 35.9545C22.699 36.762 23.3537 37.4167 24.1613 37.4167H55.4807C56.2882 37.4167 56.9429 36.762 56.9429 35.9545C56.9429 35.1469 56.2884 34.4922 55.4807 34.4922Z" fill="#C60C30"/>
<path d="M56.9429 42.5111C56.9429 41.7035 56.2882 41.0488 55.4807 41.0488H24.1613C23.3537 41.0488 22.699 41.7035 22.699 42.5111C22.699 43.3187 23.3537 43.9734 24.1613 43.9734H55.4807C56.2884 43.9734 56.9429 43.3187 56.9429 42.5111Z" fill="#C60C30"/>
<path d="M20.5333 52.9412C20.5333 51.3704 19.2555 50.0925 17.6846 50.0925H9.85498C8.2843 50.0925 7.00647 51.3704 7.00647 52.9412V60.7708C7.00647 62.3417 8.2843 63.6196 9.85498 63.6196H17.6846C19.2555 63.6196 20.5333 62.3417 20.5333 60.7708V52.9412ZM17.6088 60.695H9.93102V53.0173H17.6088V60.695Z" fill="#C60C30"/>
<path d="M24.1613 55.0401H52.1003C52.9078 55.0401 53.5626 54.3854 53.5626 53.5778C53.5626 52.7703 52.9078 52.1155 52.1003 52.1155H24.1613C23.3537 52.1155 22.699 52.7703 22.699 53.5778C22.699 54.3854 23.3537 55.0401 24.1613 55.0401Z" fill="#C60C30"/>
<path d="M55.5698 60.1343C55.5698 59.3267 54.9151 58.672 54.1075 58.672H24.1613C23.3537 58.672 22.699 59.3267 22.699 60.1343C22.699 60.9418 23.3537 61.5966 24.1613 61.5966H54.1075C54.9151 61.5966 55.5698 60.9418 55.5698 60.1343Z" fill="#C60C30"/>
<path d="M17.6846 67.7159H9.85498C8.2843 67.7159 7.00647 68.9937 7.00647 70.5646V78.3942C7.00647 79.9651 8.2843 81.2429 9.85498 81.2429H17.6846C19.2555 81.2429 20.5333 79.9651 20.5333 78.3942V70.5646C20.5333 68.9937 19.2555 67.7159 17.6846 67.7159ZM17.6088 78.3182H9.93102V70.6404H17.6088V78.3182Z" fill="#C60C30"/>
<path d="M50.2243 71.201C50.2243 70.3934 49.5696 69.7387 48.762 69.7387H24.1612C23.3537 69.7387 22.699 70.3934 22.699 71.201C22.699 72.0086 23.3537 72.6633 24.1612 72.6633H48.762C49.5696 72.6633 50.2243 72.0087 50.2243 71.201Z" fill="#C60C30"/>
<path d="M24.1613 76.2953C23.3537 76.2953 22.699 76.9501 22.699 77.7576C22.699 78.5652 23.3537 79.2199 24.1613 79.2199H44.2716C45.0792 79.2199 45.7339 78.5652 45.7339 77.7576C45.7339 76.9501 45.0792 76.2953 44.2716 76.2953H24.1613Z" fill="#C60C30"/>
<path d="M84.2131 24.4661L82.203 23.4764C80.2597 22.5195 77.9 23.322 76.9431 25.2654L47.9898 84.0667C47.8383 84.3742 47.7664 84.7177 47.7818 85.0606L48.0639 91.2987C48.0974 92.0421 48.533 92.7082 49.2006 93.0369C49.486 93.1775 49.7944 93.2469 50.1017 93.2469C50.5131 93.2469 50.9223 93.1225 51.2715 92.8784L56.3883 89.2983C56.6693 89.1016 56.8976 88.8351 57.0487 88.5282L65.0885 72.2002C65.4453 71.4757 65.1472 70.5991 64.4225 70.2423C63.6984 69.8855 62.8216 70.1836 62.4646 70.9083L57.8697 80.2398L54.0583 78.363L73.9179 38.0301L77.7296 39.9069L65.2234 65.3055C64.8666 66.03 65.1647 66.9066 65.8894 67.2634C66.6141 67.6204 67.4905 67.3221 67.8473 66.5974L86.0024 29.7266C86.9591 27.7827 86.1564 25.4232 84.2131 24.4661ZM50.9126 89.5598L50.7447 85.8495L53.9557 87.4305L50.9126 89.5598ZM56.5779 82.8631L55.548 84.9546L51.7365 83.0778L52.7664 80.9864L56.5779 82.8631ZM75.2098 35.406L76.2396 33.3146L80.0513 35.1914L79.0215 37.2828L75.2098 35.406ZM83.3785 28.4341L81.3432 32.5679L77.5315 30.6911L79.5668 26.5575C79.8111 26.0609 80.4139 25.8556 80.9111 26.1003L82.9211 27.09C83.4178 27.3345 83.6229 27.9375 83.3785 28.4341Z" fill="#C60C30"/>
</svg>
