<svg width="100" height="100" viewBox="0 0 100 100" fill="none" xmlns="http://www.w3.org/2000/svg">
<path d="M81.4383 85.0729C72.7935 92.8099 61.6285 97.071 49.9999 97.071C37.4301 97.071 25.6125 92.195 16.724 83.3414C7.83572 74.4877 2.94068 62.7162 2.94068 50.1952C2.94068 37.6742 7.83572 25.9029 16.724 17.0491C25.6125 8.19542 37.4301 3.31946 49.9999 3.31946C56.0552 3.31946 61.953 4.45072 67.5293 6.68219C68.2825 6.98331 69.139 6.61989 69.4419 5.86904C69.7446 5.11858 69.3792 4.26559 68.6256 3.96408C62.6987 1.59279 56.4322 0.390442 49.9999 0.390442C36.6445 0.390442 24.0884 5.57104 14.6446 14.9779C5.20088 24.3848 0 36.8919 0 50.1952C0 63.4985 5.20088 76.0057 14.6446 85.4125C24.0884 94.8194 36.6445 100 49.9999 100C62.3553 100 74.2183 95.4724 83.4038 87.2515C84.0079 86.7109 84.0576 85.7849 83.5148 85.1833C82.9719 84.5818 82.0423 84.532 81.4383 85.0729Z" fill="#C60C30"/>
<path d="M96.1379 30.9739C95.8244 30.2277 94.9628 29.8762 94.2139 30.1886C93.4648 30.5011 93.112 31.3592 93.4256 32.1051C95.8368 37.8415 97.0593 43.9278 97.0593 50.1952C97.0593 61.3693 93.0445 72.1922 85.7548 80.6703C85.2266 81.2846 85.2984 82.2093 85.9149 82.7354C86.1921 82.9718 86.5321 83.0876 86.8707 83.0876C87.2853 83.0876 87.6974 82.9138 87.9881 82.5758C95.7341 73.5673 100 62.0676 100 50.1953C99.9998 43.5373 98.7004 37.0703 96.1379 30.9739Z" fill="#C60C30"/>
<path d="M17.6707 32.138C16.9477 31.7705 16.0619 32.056 15.6924 32.7763C12.9107 38.2026 11.5 44.0632 11.5 50.1954C11.5 71.3415 28.7709 88.545 49.9999 88.545C71.2288 88.545 88.4998 71.3413 88.4998 50.1954C88.4998 46.6063 88.0014 43.051 87.0183 39.6284C86.7948 38.8507 85.9806 38.4014 85.2004 38.623C84.4197 38.8457 83.9678 39.6565 84.1911 40.4341C85.099 43.5947 85.5593 46.8789 85.5593 50.1954C85.5593 69.7264 69.6075 85.6158 50.0001 85.6158C30.3926 85.6158 14.4406 69.7262 14.4406 50.1952C14.4406 44.5305 15.743 39.1181 18.3114 34.1083C18.6807 33.388 18.3937 32.5059 17.6707 32.138Z" fill="#C60C30"/>
<path d="M61.1911 14.997C61.405 14.2167 60.9431 13.4113 60.1597 13.1985C56.8583 12.3008 53.4401 11.8458 49.9999 11.8458C43.8235 11.8458 37.9233 13.259 32.4637 16.0463C27.2569 18.7044 22.6492 22.5835 19.1387 27.2642C18.6527 27.9121 18.7858 28.8299 19.4365 29.314C19.7007 29.5105 20.0093 29.6054 20.3153 29.6054C20.7633 29.6054 21.2056 29.4021 21.4943 29.0172C24.7383 24.6925 28.9952 21.1085 33.805 18.6531C38.8457 16.0796 44.2944 14.775 49.9999 14.775C53.1786 14.775 56.3363 15.1952 59.3855 16.0244C60.1684 16.2372 60.9772 15.7774 61.1911 14.997Z" fill="#C60C30"/>
<path d="M53.148 26.0034C53.2031 25.1963 52.5908 24.4978 51.7806 24.4429C51.1748 24.4021 50.5757 24.3812 49.9997 24.3812C35.71 24.3812 24.0847 35.9614 24.0847 50.1952C24.0847 64.429 35.7102 76.0091 49.9997 76.0091C64.2892 76.0091 75.9147 64.429 75.9147 50.1952C75.9147 49.5146 75.8867 48.8185 75.8316 48.1258C75.7673 47.3197 75.0625 46.7172 74.2497 46.7815C73.4402 46.8455 72.836 47.5509 72.9001 48.3572C72.9491 48.9731 72.974 49.5916 72.974 50.1952C72.974 62.8138 62.6677 73.0799 49.9997 73.0799C37.3316 73.0799 27.0254 62.8138 27.0254 50.1952C27.0254 37.5765 37.3316 27.3104 49.9997 27.3104C50.5096 27.3104 51.0415 27.329 51.5814 27.3655C52.3879 27.4188 53.0931 26.8105 53.148 26.0034Z" fill="#C60C30"/>
<path d="M49.9897 40.1009C50.0163 40.1019 50.0428 40.1027 50.0697 40.1029C50.8758 40.1019 51.5469 39.4575 51.5526 38.6486C51.5584 37.8398 50.907 37.1793 50.095 37.1735C50.0632 37.1725 50.0316 37.1715 49.9997 37.1715C42.7905 37.1715 36.9252 43.0139 36.9252 50.1952C36.9252 57.3764 42.7905 63.2188 49.9997 63.2188C57.1522 63.2188 63.0163 57.4225 63.072 50.2977C63.0782 49.4888 62.425 48.828 61.6132 48.8218H61.6014C60.7947 48.8218 60.1376 49.4701 60.1313 50.275C60.0884 55.7972 55.5434 60.2896 49.9997 60.2896C44.4118 60.2896 39.8659 55.7613 39.8659 50.1952C39.8659 44.6291 44.412 40.1007 49.9897 40.1009Z" fill="#C60C30"/>
<path d="M56.2186 27.7114L58.9195 35.8468L51.7304 43.2616C50.0477 44.997 49.1149 47.3756 49.1714 49.7875C49.19 50.5815 49.8407 51.2162 50.638 51.2179H50.658C53.0727 51.2179 55.4325 50.2397 57.1342 48.5326L58.9713 46.6895C59.5434 46.1156 59.54 45.1882 58.9638 44.6184C58.3879 44.0488 57.4567 44.0515 56.8846 44.6258L55.0475 46.4689C54.287 47.2318 53.3325 47.78 52.3013 48.0649C52.5655 47.0321 53.0956 46.0701 53.8455 45.2968L87.6464 10.4345C87.7525 10.3252 87.875 10.301 87.9593 10.2998C88.0381 10.2978 88.1667 10.3195 88.2759 10.4259L89.3251 11.4492C89.4343 11.5556 89.4581 11.6779 89.4586 11.7618C89.4592 11.8458 89.4375 11.9686 89.33 12.0762L61.3795 40.1166C60.8075 40.6905 60.8108 41.6179 61.387 42.1877C61.9629 42.7574 62.894 42.7544 63.4662 42.1803L64.4259 41.2176C64.4259 41.2176 73.303 43.8843 73.6329 43.8843C74.4718 43.8843 75.2969 43.5721 75.927 42.9894L98.8837 21.7467C99.7298 20.9637 100.111 19.8205 99.9033 18.6888C99.6957 17.5572 98.9333 16.6222 97.8639 16.1881L91.7728 13.7145C92.1827 13.1415 92.4042 12.459 92.3991 11.7413C92.3927 10.8366 92.0317 9.98987 91.3826 9.35677L90.3334 8.3335C89.6959 7.71153 88.8572 7.37077 87.9667 7.37077C87.9509 7.37077 87.9348 7.37077 87.9187 7.37096C87.1983 7.38092 86.5178 7.61584 85.9514 8.03609L83.3409 2.02183C82.8825 0.965952 81.9282 0.226229 80.788 0.043251C79.648 -0.139532 78.5084 0.263918 77.7403 1.12296L56.9007 24.4301C56.1037 25.321 55.8424 26.5784 56.2186 27.7114ZM86.7074 29.0157L79.5047 26.0906L84.0756 21.505L91.5457 24.5387L86.7074 29.0157ZM79.4698 35.7128L72.6845 32.9326L77.2601 28.3423L84.3317 31.2141L79.4698 35.7128ZM73.9256 40.8432C73.8154 40.9456 73.657 40.9817 73.5125 40.9374L66.766 38.8701L70.4429 35.1815L77.0974 37.9082L73.9256 40.8432ZM97.0107 19.2155C97.0262 19.3007 97.0303 19.4637 96.8823 19.6008L93.9216 22.3404L86.3202 19.2534L89.5771 15.986L96.7537 18.9005C96.9409 18.9765 96.995 19.1306 97.0107 19.2155ZM68.543 15.8131L71.5737 22.7954L67.0623 27.4485L64.1296 20.7492L68.543 15.8131ZM75.0919 8.48875L78.2933 15.8647L73.7866 20.513L70.6997 13.401L75.0919 8.48875ZM79.9362 3.07108C80.0708 2.92052 80.2349 2.9211 80.3202 2.93516C80.4059 2.94883 80.5615 2.9996 80.6419 3.18434L83.7177 10.2703L80.5065 13.5823L77.2488 6.07664L79.9362 3.07108ZM59.0964 26.3782L61.9757 23.158L64.8519 29.7283L61.2268 33.4671L59.0105 26.7916C58.9633 26.6489 58.9962 26.4905 59.0964 26.3782Z" fill="#C60C30"/>
</svg>
