<svg width="100" height="97" viewBox="0 0 100 97" fill="none" xmlns="http://www.w3.org/2000/svg">
<path d="M96.5034 19.0459H89.7578V18.1701C89.7578 16.4004 88.3182 14.9607 86.5484 14.9607H81.0301C80.2078 14.9607 79.5414 15.627 79.5414 16.4494C79.5414 17.2717 80.2078 17.9381 81.0301 17.9381H86.5484C86.6764 17.9381 86.7804 18.0421 86.7804 18.1701V75.5408H60.3747C56.8328 75.5408 53.6541 77.1176 51.4971 79.6035V20.8958C51.533 19.2646 52.8889 17.9381 54.5207 17.9381H60.0293C60.8516 17.9381 61.518 17.2717 61.518 16.4494C61.518 15.627 60.8516 14.9607 60.0293 14.9607H54.5207C52.7393 14.9607 51.1238 15.7574 50.0186 17.0131C48.9163 15.7503 47.2921 14.9607 45.4705 14.9607H13.6681C11.8984 14.9607 10.4587 16.4004 10.4587 18.1701V19.0459H3.49663C1.56848 19.0459 0 20.6143 0 22.5423V88.3985C0 92.701 3.50021 96.2012 7.80271 96.2012H92.1975C96.5 96.2012 100 92.701 100 88.3985V22.5423C100 20.6143 98.4313 19.0459 96.5034 19.0459ZM13.4361 78.5182H39.8419C44.1992 78.5182 47.8234 81.7101 48.5035 85.8783H14.4766C13.903 85.8783 13.4363 85.4114 13.4363 84.838V78.5182H13.4361ZM13.6681 17.9381H45.4705C47.1335 17.9381 48.4711 19.2382 48.5197 20.8992V79.3755C46.3687 77.0205 43.275 75.5408 39.8417 75.5408H13.4361V18.1701C13.4361 18.0421 13.5403 17.9381 13.6681 17.9381ZM97.0226 88.3985C97.0226 91.0591 94.8581 93.2238 92.1973 93.2238H7.80271C5.14213 93.2238 2.97738 91.0593 2.97738 88.3985V22.5423C2.97738 22.2561 3.21021 22.0232 3.49663 22.0232H10.4589V84.838C10.4589 87.0533 12.2612 88.8556 14.4766 88.8556H62.9662C63.7885 88.8556 64.4549 88.1893 64.4549 87.3669C64.4549 86.5446 63.7885 85.8783 62.9662 85.8783H51.7131C52.3929 81.7101 56.0174 78.5182 60.3747 78.5182H86.7802V84.838C86.7802 85.4116 86.3134 85.8783 85.7399 85.8783H69.3106C68.4882 85.8783 67.8219 86.5446 67.8219 87.3669C67.8219 88.1893 68.4882 88.8556 69.3106 88.8556H85.7399C87.9553 88.8556 89.7576 87.0533 89.7576 84.838V22.0232H96.5032C96.7894 22.0232 97.0224 22.2561 97.0224 22.5423V88.3985H97.0226Z" fill="#C60C30"/>
<path d="M68.2632 71.7228C68.8112 72.4271 69.6373 72.831 70.5297 72.831C71.4222 72.831 72.2483 72.4271 72.7963 71.7228L75.9591 67.6573C76.3493 67.1557 76.5641 66.5295 76.5641 65.8941V5.07405C76.5641 2.27611 74.2878 0 71.49 0H69.5698C66.7719 0 64.4958 2.2763 64.4958 5.07405V38.4626C64.4958 39.2849 65.1621 39.9512 65.9845 39.9512C66.8068 39.9512 67.4732 39.2849 67.4732 38.4626V10.5228H73.5869V65.8578L70.5301 69.7873L67.4734 65.8576V44.8068C67.4734 43.9844 66.807 43.3181 65.9847 43.3181C65.1623 43.3181 64.496 43.9844 64.496 44.8068V65.8939C64.496 66.5293 64.7108 67.1553 65.101 67.6571L68.2632 71.7228ZM67.473 7.54547V5.07424C67.473 3.91803 68.4134 2.97758 69.5696 2.97758H71.4899C72.6461 2.97758 73.5865 3.91803 73.5865 5.07424V7.54547H67.473Z" fill="#C60C30"/>
<path d="M30.6309 54.8217C32.1438 54.8217 33.6317 54.5653 35.0533 54.0591C35.8278 53.7834 36.2323 52.9321 35.9566 52.1576C35.6809 51.3831 34.8294 50.9785 34.0549 51.2542C32.9546 51.6459 31.8024 51.8444 30.6307 51.8444C28.3518 51.8444 26.245 51.0935 24.5443 49.8265L31.6833 42.6875C31.9625 42.4082 32.1194 42.0297 32.1194 41.6347V31.5347C37.0457 32.2576 40.8403 36.5107 40.8403 41.6345C40.8403 43.9865 40.0612 46.1975 38.5872 48.0289C38.0717 48.6695 38.1732 49.6064 38.8135 50.122C39.4544 50.6375 40.3911 50.5361 40.9066 49.8956C42.7837 47.5633 43.8177 44.6296 43.8177 41.6345C43.8177 34.3632 37.902 28.4475 30.6307 28.4475C23.3593 28.4475 17.4437 34.3632 17.4437 41.6345C17.4437 48.9059 23.3597 54.8217 30.6309 54.8217ZM29.1422 31.5349V41.0182L22.4391 47.7211C21.1721 46.0202 20.4212 43.9136 20.4212 41.6347C20.4212 36.5109 24.216 32.2578 29.1422 31.5349Z" fill="#C60C30"/>
<path d="M19.6184 25.1709H42.3292C43.1514 25.1709 43.8179 24.5046 43.8179 23.6822C43.8179 22.8599 43.1514 22.1935 42.3292 22.1935H19.6184C18.7962 22.1935 18.1297 22.8599 18.1297 23.6822C18.1297 24.5046 18.7962 25.1709 19.6184 25.1709Z" fill="#C60C30"/>
<path d="M42.3292 58.7685H19.6184C18.7962 58.7685 18.1297 59.4348 18.1297 60.2572C18.1297 61.0795 18.7962 61.7459 19.6184 61.7459H42.3292C43.1514 61.7459 43.8179 61.0795 43.8179 60.2572C43.8179 59.4348 43.1514 58.7685 42.3292 58.7685Z" fill="#C60C30"/>
<path d="M42.3292 66.3788H19.6184C18.7962 66.3788 18.1297 67.0452 18.1297 67.8675C18.1297 68.6899 18.7962 69.3562 19.6184 69.3562H42.3292C43.1514 69.3562 43.8179 68.6899 43.8179 67.8675C43.8179 67.0452 43.1514 66.3788 42.3292 66.3788Z" fill="#C60C30"/>
</svg>
