<svg width="100" height="91" viewBox="0 0 100 91" fill="none" xmlns="http://www.w3.org/2000/svg">
<path d="M97.7111 76.3338H96.1046V24.6284C96.1046 19.3431 91.8045 15.043 86.519 15.043H81.3153C80.5049 15.043 79.8483 15.6996 79.8483 16.51C79.8483 17.3203 80.5049 17.977 81.3153 17.977H86.519C90.1867 17.977 93.1706 20.9609 93.1706 24.6284V76.334H60.3776C59.3763 76.334 58.4423 76.8281 57.8796 77.6555L57.4397 78.302C57.0311 78.9026 56.3531 79.2612 55.6264 79.2612H44.1776C43.4511 79.2612 42.7733 78.9026 42.3645 78.302L41.9248 77.6557C41.3619 76.8283 40.4281 76.334 39.4268 76.334H23.7964C22.986 76.334 22.3294 76.9906 22.3294 77.801C22.3294 78.6114 22.986 79.268 23.7964 79.268H39.4268C39.4558 79.268 39.4828 79.2821 39.4992 79.3062L39.9391 79.9526C40.8948 81.3568 42.4792 82.1952 44.1776 82.1952H55.6264C57.3252 82.1952 58.9098 81.3568 59.8653 79.9524L60.3052 79.306C60.3215 79.2821 60.3484 79.268 60.3774 79.268H97.0658V80.8553C97.0658 84.7595 93.8894 87.9359 89.9853 87.9359H10.0146C6.11037 87.9359 2.93401 84.7595 2.93401 80.8553V79.268H17.5444C18.3548 79.268 19.0114 78.6114 19.0114 77.801C19.0114 76.9906 18.3548 76.334 17.5444 76.334H6.82939V24.6284C6.82939 20.9609 9.81328 17.977 13.481 17.977H17.8071C18.6175 17.977 19.2741 17.3203 19.2741 16.51C19.2741 15.6996 18.6175 15.043 17.8071 15.043H13.481C8.19566 15.043 3.89539 19.3429 3.89539 24.6284V76.334H2.28892C1.0269 76.3338 0 77.3607 0 78.6229V80.8553C0 86.3773 4.49255 90.8699 10.0146 90.8699H89.9855C95.5074 90.8699 100 86.3773 100 80.8553V78.6229C100 77.3607 98.9731 76.3338 97.7111 76.3338Z" fill="#C60C30"/>
<path d="M13.4808 24.236H22.9293C23.7396 24.236 24.3963 23.5794 24.3963 22.769C24.3963 21.9586 23.7396 21.302 22.9293 21.302H13.4808C11.6466 21.302 10.1546 22.7942 10.1546 24.6284V71.5418C10.1546 72.3522 10.8112 73.0088 11.6216 73.0088H88.3784C89.1888 73.0088 89.8454 72.3522 89.8454 71.5418V59.1272C89.8454 58.3169 89.1888 57.6602 88.3784 57.6602C87.568 57.6602 86.9114 58.3169 86.9114 59.1272V70.0748H13.0886V24.6284C13.0886 24.4119 13.2645 24.236 13.4808 24.236Z" fill="#C60C30"/>
<path d="M89.8454 24.6284C89.8454 22.7942 88.3532 21.302 86.519 21.302H81.7675C80.9571 21.302 80.3005 21.9586 80.3005 22.769C80.3005 23.5794 80.9571 24.236 81.7675 24.236H86.519C86.7354 24.236 86.9114 24.4119 86.9114 24.6284V52.8752C86.9114 53.6856 87.568 54.3422 88.3784 54.3422C89.1888 54.3422 89.8454 53.6856 89.8454 52.8752V24.6284Z" fill="#C60C30"/>
<path d="M24.5297 19.1642L27.9912 21.0228V34.6853C27.9912 39.6863 32.0599 43.7547 37.0608 43.7547H62.939C67.9399 43.7547 72.0086 39.6863 72.0086 34.6853V20.918L74.1346 19.7765V45.8952C71.9061 46.5342 70.2699 48.5888 70.2699 51.0199C70.2699 53.9598 72.6617 56.3516 75.6016 56.3516C78.5414 56.3516 80.9333 53.9598 80.9333 51.0199C80.9333 48.5888 79.2971 46.534 77.0686 45.8952V16.1649C77.0686 16.1649 77.0686 16.1647 77.0686 16.1645C77.0686 14.9086 76.381 13.7596 75.2745 13.1654L51.513 0.406531C50.5046 -0.135478 49.3001 -0.135478 48.2916 0.406336L24.5297 13.1654C23.423 13.7596 22.7354 14.9089 22.7356 16.1651C22.7356 17.421 23.4232 18.5704 24.5297 19.1642ZM77.9994 51.0199C77.9994 52.342 76.9238 53.4176 75.6018 53.4176C74.2797 53.4176 73.2041 52.342 73.2041 51.0199C73.2041 49.6979 74.2797 48.6223 75.6018 48.6223C76.9238 48.6223 77.9994 49.6981 77.9994 51.0199ZM25.9177 15.7502L49.68 2.9912C49.8193 2.91667 49.9851 2.91648 50.1246 2.99139L73.8865 15.7502C74.1025 15.8662 74.1346 16.0599 74.1346 16.1649C74.1346 16.2699 74.1025 16.4634 73.8865 16.5794L50.1244 29.3384C49.9853 29.4133 49.8189 29.4133 49.6796 29.3384L42.9472 25.7235C42.2335 25.3399 41.3443 25.6081 40.9609 26.322C40.5775 27.036 40.8455 27.9252 41.5594 28.3084L48.2916 31.9233C48.7959 32.1942 49.349 32.3295 49.9022 32.3295C50.4554 32.3295 51.0085 32.1942 51.5126 31.9233L69.0746 22.4934V34.6853C69.0746 38.0684 66.3223 40.8207 62.939 40.8207H37.061C33.6777 40.8207 30.9254 38.0684 30.9254 34.6853V22.5982L35.8761 25.2564C36.59 25.6402 37.4796 25.3718 37.8624 24.6579C38.2458 23.9441 37.9778 23.0547 37.2639 22.6715L25.9177 16.5792C25.7017 16.4634 25.6696 16.2699 25.6696 16.1649C25.6696 16.0599 25.7017 15.8662 25.9177 15.7502Z" fill="#C60C30"/>
</svg>
